PathFileType	4	(X/Y/Z)	C:/Users/beibeiliu/ov580/test_trc/capture2\sequence.11_training_dense_right.trc
DataRate	CameraRate	NumFrames	NumMarkers	Units	OrigDataRate	OrigDataStartFrame	OrigNumFrames
120	120	14	19	mm	120	176	350
Frame#	Time	ThumbCMC			ThumbMCP			ThumbIP			ThumbTip			IndexMCP			IndexPIP			IndexTip			MiddleMCP			MiddlePIP			MiddleTip			RingMCP			RingPIP			RingTip			PinkyMCP			PinkyPIP			PinkyTip			BackHand1			BackHand2			BackHand3	
		X0	Y0	Z0	X1	Y1	Z1	X2	Y2	Z2	X3	Y3	Z3	X4	Y4	Z4	X5	Y5	Z5	X6	Y6	Z6	X7	Y7	Z7	X8	Y8	Z8	X9	Y9	Z9	X10	Y10	Z10	X11	Y11	Z11	X12	Y12	Z12	X13	Y13	Z13	X14	Y14	Z14	X15	Y15	Z15	X16	Y16	Z16	X17	Y17	Z17	X18	Y18	Z18	
175	1.45833	211.908	-17.1934	0.0836814	216.284	6.23202	-17.1968	227.593	21.7339	-34.556	229.808	33.2252	-49.4812	202.206	-24.2568	-72.2005	203.246	-13.2044	-95.9361	201.673	-2.28494	-121.7	177.809	-39.9418	-76.0972	170.374	-33.3533	-105.347	158.543	-27.5334	-126.615	152.173	-45.68	-69.8234	142.006	-38.9459	-93.1094	131.157	-30.2205	-112.247	127.215	-47.0958	-52.3468	114.55	-40.2817	-67.1765	95.1239	-39.5946	-81.047	165.97	-62.159	-18.9531	172.198	-63.1372	9.36922	198.148	-52.4631	-11.0366	
176	1.46667	211.937	-19.5783	3.21575	217.858	4.20306	-12.6586	229.265	22.213	-30.9961	230.165	34.6537	-47.0137	198.421	-20.6385	-72.1531	202.283	-6.71874	-92.8785	198.987	4.08542	-114.418	172.22	-35.076	-76.5699	165.829	-25.8461	-100.671	153.406	-16.38	-124.098	151.959	-39.0213	-68.8688	141.083	-31.9221	-86.2411	124.633	-19.3458	-110.032	126.858	-41.867	-47.5386	109.349	-35.0908	-57.0618	91.1464	-30.5766	-72.1277	163.596	-57.4992	-22.3833	170.831	-65.6891	9.7536	196.39	-49.828	-9.89572	
177	1.475	214.596	-19.8645	6.26289	220.719	5.34377	-7.57021	225.695	21.5357	-29.2529	235.445	37.9387	-40.8332	201.901	-16.1545	-69.0404	197.874	-2.63936	-92.9218	195.257	9.81985	-112.231	170.82	-32.6727	-70.5774	165.096	-19.6837	-99.0662	151.371	-7.29751	-123.631	145.641	-36.9717	-62.7341	134.399	-27.6481	-83.1188	122.496	-12.6208	-104.109	124.808	-38.8059	-41.043	111.737	-31.1136	-55.0176	90.8769	-22.7314	-71.7006	165.847	-58.0104	-17.0255	169.77	-67.1506	10.2966	198.671	-51.5144	-8.20252	
178	1.48333	212.717	-21.5786	7.41671	220.432	6.46384	-8.58861	230.888	24.3131	-24.0017	235.26	39.215	-38.6992	199.424	-13.8434	-63.9515	197.53	0.475774	-87.649	193.709	16.9751	-109.835	170.03	-26.826	-69.133	162.858	-15.3374	-92.9295	148.47	2.12482	-119.27	146.201	-30.2839	-63.512	130.398	-21.4546	-79.0191	118.581	-5.46549	-97.7853	126.974	-34.2512	-40.4026	110.087	-25.5652	-52.1018	89.0156	-20.823	-63.7975	164.221	-53.7074	-17.9497	168.235	-66.0585	7.94456	194.025	-49.3873	-8.85625	
179	1.49167	213.977	-21.2358	6.46085	218.842	3.90451	-3.46962	226.673	21.3249	-17.4886	230.841	38.5584	-34.3391	194.898	-11.142	-66.4651	197.931	6.40392	-83.6714	188.242	18.8246	-102.439	168.027	-24.4448	-65.7072	156.865	-11.5586	-87.1826	145.352	6.0802	-109.771	141.251	-28.3197	-57.3935	131.22	-14.0897	-76.8682	116.853	2.83867	-94.389	122.702	-29.4588	-39.5064	108.839	-21.2642	-47.1548	85.7468	-15.5364	-59.5751	160.914	-54.2559	-14.7235	167.01	-65.878	12.2386	195.04	-50.4268	-7.12184	
180	1.5	212.509	-23.2999	10.468	220.955	2.50944	2.82388	227.157	22.5396	-16.1317	234.743	40.3347	-28.7146	192.455	-11.0892	-58.167	191.531	8.56625	-81.1749	188.94	25.6202	-99.0435	164.782	-19.2	-63.5659	156.437	-3.98732	-83.4006	142.16	13.2296	-103.811	144.42	-23.7837	-53.1222	125.842	-9.09172	-72.1156	115.362	6.13795	-85.9621	123.639	-29.4292	-31.055	105.236	-18.756	-41.0122	83.7218	-11.2391	-50.6503	158.112	-54.1801	-15.8831	168.038	-68.7242	14.6765	194.552	-51.9785	-5.03665	
181	1.50833	213.855	-22.0042	11.2582	221.853	3.7735	3.10842	229.12	22.0777	-9.85597	232.604	40.0053	-24.9697	193.655	-6.4815	-55.4116	190.913	13.8849	-76.3914	185.093	30.5852	-91.9947	162.184	-17.254	-57.5976	152.686	0.644622	-78.4226	143.041	21.8287	-98.5647	138.354	-22.4127	-46.6162	123.295	-5.12841	-64.0392	115.787	14.0445	-79.8566	118.542	-25.4471	-26.8906	103.985	-12.6307	-35.8908	85.7607	-8.27814	-45.0208	163.263	-52.2838	-10.536	169.594	-65.8332	13.3701	192.83	-49.2166	-2.03892	
182	1.51667	216.964	-23.025	13.8042	221.876	1.34432	8.19229	231.566	25.0597	-11.395	234.746	42.2348	-23.6489	193.393	-2.72577	-55.6679	188.756	15.4482	-72.83	181.219	33.5268	-86.8866	163.261	-14.3431	-54.2142	150.367	2.31235	-72.3503	141.935	27.7173	-93.5764	141.201	-19.4763	-43.8031	122.524	-2.18653	-60.2551	108.897	18.817	-72.4043	117.604	-23.5724	-24.8019	103.754	-9.77022	-32.0165	85.3454	-4.77781	-40.491	160.627	-51.2443	-12.4749	166.599	-66.3346	17.574	195.171	-50.2815	-3.13999	
183	1.525	213.669	-24.8774	14.9261	222.413	2.34176	7.44427	232.876	22.4105	-6.85699	236.949	41.2172	-19.9561	189.407	-5.16811	-50.4307	190.374	17.5901	-67.8387	184.667	36.4421	-83.0884	158.77	-13.1266	-52.1538	148.428	6.59109	-71.9088	136.337	30.3191	-87.02	136.05	-16.6761	-44.5601	121.907	1.46259	-57.8915	110.67	21.1122	-68.9327	118.094	-23.9195	-17.8073	101.268	-10.1054	-25.9979	81.2035	0.654138	-38.3784	159.361	-51.7834	-9.61198	167.316	-66.8684	18.7363	194.473	-48.7525	-3.06097	
184	1.53333	216.323	-22.5795	12.7615	221.514	2.85128	5.61729	232.124	24.0526	-7.46671	234.675	40.9737	-19.4601	192.229	-0.394334	-51.2269	189.032	20.857	-68.9949	181.429	38.7011	-82.5117	158.503	-10.3299	-53.7407	147.627	6.58942	-68.0176	136.162	32.5441	-87.0716	138.466	-15.6216	-41.2395	124.624	2.76174	-56.8918	108.536	23.3657	-67.4229	120.766	-21.6257	-19.5882	99.4497	-10.0889	-22.9887	79.8729	-0.493404	-31.1612	161.029	-49.1231	-7.83444	170.246	-64.0626	15.1717	193.512	-47.3756	-1.28068	
185	1.54167	214.811	-24.1279	15.506	225.199	1.65534	9.73367	229.882	22.2842	-5.65812	235.746	41.7401	-18.8063	191.573	-0.173781	-52.9298	190.311	17.6166	-67.9185	180.239	41.8189	-85.1322	162.093	-8.92014	-56.7	147.633	9.16693	-71.6237	137.853	30.2048	-85.3424	136.051	-14.0575	-44.6705	122.79	-0.949105	-54.2572	111.891	22.2558	-69.2402	121.544	-22.1959	-20.8772	100.384	-8.67695	-26.9283	80.8557	-0.453107	-31.5786	160.375	-48.4807	-10.5596	168.728	-65.2242	19.6025	195.227	-48.6055	-0.335954	
186	1.55	215.173	-25.2494	16.2891	224.789	1.77092	7.91255	230.316	22.7255	-8.72493	237.431	40.3219	-19.8464	193.367	-4.30871	-50.8887	191.743	17.6635	-69.9138	182.835	37.895	-85.7666	163.587	-13.2915	-54.9867	153.225	3.77663	-72.5342	138.743	29.4359	-90.57	135.857	-18.2278	-45.4596	123.148	-2.12681	-56.8064	112.429	19.6646	-71.0066	116.133	-24.254	-21.31	103.357	-9.36343	-29.9857	83.3016	-1.93408	-37.6231	161.515	-50.943	-8.52618	167.499	-67.1119	16.9593	194.012	-48.1911	-5.40693	
187	1.55833	214.521	-26.156	16.5132	220.881	1.18703	5.43671	232.091	21.0014	-6.65931	239.574	38.3204	-19.5214	191.041	-8.935	-53.1487	194.055	14.5975	-74.1606	183.829	31.1985	-89.6537	163.19	-16.5964	-56.3729	153.92	3.9991	-78.2785	139.429	25.5116	-93.3635	138.574	-21.056	-48.6481	127.204	-5.92346	-61.0114	111.892	17.4975	-75.9017	115.643	-25.8624	-24.4284	99.0843	-13.0878	-31.0326	79.3888	-4.65956	-41.8273	158.678	-55.3255	-8.71791	167.695	-66.7175	14.3504	193.654	-49.1081	-4.58683	
188	1.56667	212.617	-27.1434	15.3548	224.119	-0.36832	6.65939	231.374	19.793	-12.1038	240.026	35.8472	-22.5698	195.067	-11.3303	-56.7629	192.935	8.96172	-76.7297	185.944	25.4965	-93.4053	164.95	-20.2276	-61.9566	151.887	-5.75053	-78.2858	140.543	20.6195	-98.4067	141.695	-24.9286	-50.2765	125.921	-11.1307	-64.8795	111.814	11.2511	-79.9818	121.496	-28.452	-28.7907	102.554	-16.0065	-38.3713	81.6381	-7.61196	-49.7379	159.163	-55.7751	-7.57586	167.972	-67.3417	12.8283	190.961	-54.7877	-1.2098	
